<svg xmlns="http://www.w3.org/2000/svg" width="100%" viewBox="0 0 131 58" fill="none" ><path d="M106.614 1.9536L106.614 29.5464C106.614 30.6253 104.898 31.4999 102.781 31.5L3.83344 31.5015C1.7163 31.5016 -1.34615e-07 30.6269 0 29.548L1.99936e-06 13.5227C2.04157e-06 13.1844 0.17239 12.8519 0.500298 12.5577L13.3966 0.988605C14.0778 0.377516 15.3506 -8.44781e-08 16.7297 0L102.781 7.23306e-06C104.898 7.36274e-06 106.614 0.874659 106.614 1.9536Z" fill="#f84c1c"></path><path d="M13.6562 29.548L13.6562 1.95524C13.6562 0.876321 15.3724 0.00167922 17.4894 0.00164528L116.437 5.91109e-05C118.554 2.51724e-05 120.27 0.874684 120.27 1.95365V17.9789C120.27 18.3172 120.098 18.6497 119.77 18.9439L106.874 30.513C106.193 31.1241 104.92 31.5016 103.541 31.5016L17.4896 31.5016C15.3725 31.5016 13.6562 30.627 13.6562 29.548Z" fill="#f84c1c"></path><path d="M19.3223 30.024L102.568 30.024C103.845 30.024 105.023 29.6824 105.654 29.1294L117.598 18.6603C117.902 18.3941 118.061 18.0932 118.061 17.7871L118.061 3.28561C118.061 2.30924 116.472 1.51774 114.511 1.51778L19.3223 1.51927M101.261 1.51759L18.0162 1.51758C16.739 1.51758 15.5602 1.8592 14.9293 2.41218L2.98556 12.8813C2.68187 13.1475 2.52222 13.4484 2.52222 13.7545L2.52222 28.256C2.52222 29.2323 4.11175 30.0238 6.0725 30.0238L101.261 30.0223" stroke="white" stroke-width="0.239582"></path><path d="M121.013 36.1908L121.013 56.5404C121.013 57.3361 119.774 57.9812 118.246 57.9812L46.8033 57.9824C45.2747 57.9824 44.0355 57.3373 44.0355 56.5416L44.0355 44.723C44.0355 44.4735 44.16 44.2283 44.3967 44.0113L53.7082 35.4791C54.2 35.0284 55.119 34.75 56.1147 34.75L118.245 34.75C119.774 34.75 121.013 35.3951 121.013 36.1908Z" fill="#200f09"></path><path d="M53.8956 56.5416L53.8956 36.192C53.8956 35.3963 55.1347 34.7512 56.6632 34.7512L128.105 34.75C129.634 34.75 130.873 35.3951 130.873 36.1908V46.703C130.873 46.9525 130.749 48.5041 130.512 48.7211L121.201 57.2533C120.709 57.704 119.79 57.9824 118.794 57.9824L56.6634 57.9824C55.1348 57.9824 53.8956 57.3374 53.8956 56.5416Z" fill="#200f09"></path><path d="M57.9868 56.8906L118.092 56.8906C119.014 56.8906 119.865 56.6387 120.32 56.2309L128.944 48.5099C129.163 48.3136 129.279 48.0917 129.279 47.8659L129.279 37.1711C129.279 36.451 128.131 35.8673 126.715 35.8673L57.9867 35.8684M117.149 35.8672L57.0437 35.8672C56.1215 35.8672 55.2704 36.1191 54.8149 36.527L46.1913 44.2479C45.972 44.4442 45.8567 44.6661 45.8567 44.8919L45.8567 55.5867C45.8567 56.3068 47.0044 56.8905 48.4201 56.8905L117.149 56.8894" stroke="#ffffff" stroke-width="0.239582"></path><path d="M15.318 19.1403C15.318 20.1224 16.0225 20.6134 17.4315 20.6134C18.8548 20.6134 19.5664 20.1722 19.5664 19.2898C19.5664 18.8201 19.3245 18.4358 18.8406 18.1369C18.3567 17.838 17.766 17.589 17.0686 17.3897C16.3854 17.1904 15.6951 16.9627 14.9977 16.7065C14.3146 16.4361 13.731 16.0234 13.2471 15.4683C12.7632 14.899 12.5212 14.1945 12.5212 13.3547C12.5212 9.7823 14.8198 7.99609 19.417 7.99609C21.0965 7.99609 22.3632 8.31633 23.2171 8.9568C24.0853 9.58305 24.5194 10.4584 24.5194 11.5827C24.5194 11.9955 24.4625 12.394 24.3486 12.7783C24.249 13.1483 24.1423 13.4117 24.0284 13.5682L23.8576 13.8244H20.0788C20.3919 13.4971 20.5485 13.0843 20.5485 12.5862C20.5485 11.661 19.9436 11.1985 18.7338 11.1985C17.2109 11.1985 16.4495 11.6824 16.4495 12.6502C16.4495 13.1341 16.6914 13.5184 17.1753 13.8031C17.6593 14.0877 18.2428 14.3154 18.926 14.4862C19.6234 14.6428 20.3208 14.842 21.0182 15.084C21.7156 15.326 22.3062 15.7316 22.7902 16.3009C23.2741 16.856 23.516 17.5818 23.516 18.4785C23.516 20.2861 22.9752 21.6311 21.8935 22.5135C20.8118 23.3817 19.1466 23.8158 16.8978 23.8158C14.649 23.8158 13.1119 23.4173 12.2864 22.6202C11.6744 22.0225 11.3684 21.197 11.3684 20.1437C11.3684 19.7452 11.4111 19.3111 11.4965 18.8414L11.5605 18.4999H15.4034L15.3607 18.7561C15.3322 18.8984 15.318 19.0265 15.318 19.1403Z" fill="#ffffff"></path><path d="M34.7337 23.5169H24.0164L26.7277 8.14554H37.445L36.8472 11.476H29.9728L29.4818 14.3581H35.1606L34.5629 17.6886H28.884L28.457 20.1864H35.3314L34.7337 23.5169Z" fill="#ffffff"></path><path d="M44.3259 7.99609C47.756 7.99609 49.4711 9.39802 49.4711 12.2019C49.4711 12.6716 49.4212 13.1768 49.3216 13.7177L48.5744 17.9875C48.2328 19.9658 47.4927 21.4318 46.3541 22.3854C45.2155 23.339 43.6143 23.8158 41.5505 23.8158C39.4868 23.8158 38.0493 23.339 37.238 22.3854C36.6829 21.7307 36.4054 20.8269 36.4054 19.6741C36.4054 19.1617 36.4623 18.5995 36.5762 17.9875L37.3234 13.7177C37.9923 9.90328 40.3265 7.99609 44.3259 7.99609ZM42.127 20.5067C42.8386 20.5067 43.4079 20.3217 43.8349 19.9516C44.2619 19.5815 44.5608 18.8984 44.7315 17.9021L45.4574 13.8031C45.5001 13.5184 45.5215 13.2622 45.5215 13.0345C45.5215 11.8816 44.9379 11.3052 43.7708 11.3052C42.3049 11.3337 41.4295 12.1663 41.1449 13.8031L40.419 17.9021C40.3621 18.2579 40.3336 18.628 40.3336 19.0122C40.3336 20.0085 40.9314 20.5067 42.127 20.5067Z" fill="#ffffff"></path><path d="M68.4141 11.476H63.1622L61.0486 23.5169H57.1844L59.298 11.476H54.0247L54.6225 8.14554H69.0118L68.4141 11.476Z" fill="#ffffff"></path><path d="M77.7071 23.5169H66.9898L69.7012 8.14554H80.4184L79.8207 11.476H72.9462L72.4552 14.3581H78.1341L77.5363 17.6886H71.8574L71.4305 20.1864H78.3049L77.7071 23.5169Z" fill="#ffffff"></path><path d="M86.6991 23.5169L86.8272 20.1651H83.2619L82.2158 23.5169H78.1381L83.6248 8.14554H90.67L90.7554 23.5169H86.6991ZM85.8238 11.8816L84.1372 17.3043H86.9339L87.1688 11.8816H85.8238Z" fill="#ffffff"></path><path d="M98.4331 8.14554L100.717 15.511L105.628 8.14554H109.663L106.951 23.5169H103.087L104.624 14.8492L101.337 20.0156H98.5398L97.0881 14.8492L95.5509 23.5169H91.7081L94.4194 8.14554H98.4331Z" fill="#ffffff"></path><path d="M65.123 43.377H61.338L59.8148 52.0546H57.03L58.5532 43.377H54.7529L55.1837 40.9768H65.5538L65.123 43.377Z" fill="#ffffff"></path><path d="M70.0816 40.8691C72.5536 40.8691 73.7896 41.8795 73.7896 43.9001C73.7896 44.2386 73.7537 44.6028 73.6819 44.9925L73.1434 48.0697C72.8972 49.4955 72.3639 50.5519 71.5433 51.2392C70.7227 51.9264 69.5688 52.27 68.0815 52.27C66.5942 52.27 65.5582 51.9264 64.9735 51.2392C64.5735 50.7673 64.3735 50.116 64.3735 49.2852C64.3735 48.9159 64.4145 48.5108 64.4966 48.0697L65.0351 44.9925C65.5172 42.2436 67.1994 40.8691 70.0816 40.8691ZM68.4969 49.8852C69.0098 49.8852 69.42 49.7519 69.7278 49.4852C70.0355 49.2185 70.2509 48.7262 70.374 48.0082L70.8971 45.0541C70.9279 44.8489 70.9432 44.6643 70.9432 44.5002C70.9432 43.6694 70.5227 43.2539 69.6816 43.2539C68.6251 43.2745 67.9943 43.8745 67.7891 45.0541L67.266 48.0082C67.225 48.2646 67.2045 48.5313 67.2045 48.8082C67.2045 49.5262 67.6353 49.8852 68.4969 49.8852Z" fill="#ffffff"></path><path d="M79.9603 40.9768C81.1296 40.9768 81.9604 41.2333 82.4528 41.7461C82.8221 42.1359 83.0067 42.6283 83.0067 43.2232C83.0067 43.4283 82.9862 43.6437 82.9451 43.8694L82.7297 45.0695C82.6067 45.7362 82.3913 46.2747 82.0835 46.685C81.7861 47.0953 81.4527 47.3876 81.0835 47.562L82.4836 52.0546H79.3756L78.0832 47.9158H77.1293L76.4985 52.0546H73.5444L75.4984 40.9768H79.9603ZM78.991 43.377H77.837L77.437 46.0542H78.514C79.0577 46.0542 79.4474 45.9259 79.6833 45.6695C79.9193 45.4028 80.0372 45.0541 80.0372 44.6233C80.0372 43.7924 79.6885 43.377 78.991 43.377Z" fill="#ffffff"></path><path d="M88.782 40.8691C91.254 40.8691 92.49 41.8795 92.49 43.9001C92.49 44.2386 92.4541 44.6028 92.3823 44.9925L91.8438 48.0697C91.5976 49.4955 91.0642 50.5519 90.2437 51.2392C89.4231 51.9264 88.2692 52.27 86.7819 52.27C85.2946 52.27 84.2586 51.9264 83.6739 51.2392C83.2739 50.7673 83.0739 50.116 83.0739 49.2852C83.0739 48.9159 83.1149 48.5108 83.197 48.0697L83.7355 44.9925C84.2176 42.2436 85.8997 40.8691 88.782 40.8691ZM87.1973 49.8852C87.7101 49.8852 88.1204 49.7519 88.4281 49.4852C88.7359 49.2185 88.9513 48.7262 89.0743 48.0082L89.5975 45.0541C89.6282 44.8489 89.6436 44.6643 89.6436 44.5002C89.6436 43.6694 89.2231 43.2539 88.382 43.2539C87.3255 43.2745 86.6947 43.8745 86.4895 45.0541L85.9664 48.0082C85.9254 48.2646 85.9049 48.5313 85.9049 48.8082C85.9049 49.5262 86.3357 49.8852 87.1973 49.8852Z" fill="#ffffff"></path><path d="M102.738 40.9768L100.799 52.0546H98.0145L96.0759 45.9926L95.0296 52.0546H92.2448L94.1988 40.9768H97.0605L98.9684 46.6388L99.9685 40.9768H102.738Z" fill="#ffffff"></path><path d="M113.174 43.377H109.389L107.865 52.0546H105.081L106.604 43.377H102.804L103.234 40.9768H113.604L113.174 43.377Z" fill="#ffffff"></path><path d="M118.132 40.8691C120.604 40.8691 121.84 41.8795 121.84 43.9001C121.84 44.2386 121.804 44.6028 121.733 44.9925L121.194 48.0697C120.948 49.4955 120.414 50.5519 119.594 51.2392C118.773 51.9264 117.619 52.27 116.132 52.27C114.645 52.27 113.609 51.9264 113.024 51.2392C112.624 50.7673 112.424 50.116 112.424 49.2852C112.424 48.9159 112.465 48.5108 112.547 48.0697L113.086 44.9925C113.568 42.2436 115.25 40.8691 118.132 40.8691ZM116.548 49.8852C117.06 49.8852 117.471 49.7519 117.778 49.4852C118.086 49.2185 118.302 48.7262 118.425 48.0082L118.948 45.0541C118.978 44.8489 118.994 44.6643 118.994 44.5002C118.994 43.6694 118.573 43.2539 117.732 43.2539C116.676 43.2745 116.045 43.8745 115.84 45.0541L115.317 48.0082C115.276 48.2646 115.255 48.5313 115.255 48.8082C115.255 49.5262 115.686 49.8852 116.548 49.8852Z" fill="#ffffff"></path></svg>